<svg height="512" viewBox="0 0 64 64" width="512" xmlns="http://www.w3.org/2000/svg"><g id="Tech_service" data-name="Tech service"><path d="m51.6 31a19.971 19.971 0 0 1 -2.92 7.03l3.12 3.11-5.66 5.66-3.11-3.12a19.894 19.894 0 0 1 -7.03 2.92v4.4h-8v-4.4a19.894 19.894 0 0 1 -7.03-2.92l-3.11 3.12-5.66-5.66 3.12-3.11a19.971 19.971 0 0 1 -2.92-7.03h-4.4v-8h4.4a19.894 19.894 0 0 1 2.92-7.03l-3.12-3.11 5.66-5.66 3.11 3.12a19.971 19.971 0 0 1 7.03-2.92v-4.4h8v4.4a19.971 19.971 0 0 1 7.03 2.92l3.11-3.12 5.66 5.66-3.12 3.11a19.894 19.894 0 0 1 2.92 7.03h4.4v8z" fill="#ffcd00"/><circle cx="32" cy="27" fill="#a7a9ac" r="15"/><circle cx="32" cy="27" fill="#f1f2f2" r="13"/><path d="m8 51a5 5 0 0 0 0 10h17v-10z" fill="#006df0"/><path d="m39 24-2-3h-2v3z" fill="#ff9478"/><path d="m39 24h-12.5a1.5 1.5 0 0 0 0 3 1.5 1.5 0 0 0 0 3 1.5 1.5 0 0 0 0 3 1.5 1.5 0 0 0 0 3h14.5v-12z" fill="#ffbcab"/><path d="m46.14 22h-5.14v16h1.18a14.963 14.963 0 0 0 3.96-16z" fill="#006df0"/><path d="m35 21v-2a5.006 5.006 0 0 0 -1-8.59v4.59l-2 2-2-2v-4.59a5.006 5.006 0 0 0 -1 8.59v5h6z" fill="#d80027"/><path d="m32 39a3 3 0 0 0 3-3h-6a3 3 0 0 0 3 3z" fill="#d80027"/><path d="m55 53-3 1h-27v2 2h27l3 1 6-2v-1-1z" fill="#7ed63e"/><path d="m25 56v2h27l3 1 6-2v-1z" fill="#5eac24"/><g fill="#231f20"><path d="m32 43a15.862 15.862 0 0 0 10.856-4.264c.009-.008.017-.017.025-.025l.01-.01a15.957 15.957 0 0 0 4.192-17.034c-.006-.016-.014-.031-.02-.047l-.007-.017a16.013 16.013 0 0 0 -9.956-9.745 6.038 6.038 0 0 0 -2.695-2.358 1 1 0 0 0 -1.405.91v4.176l-1 1-1-1v-4.176a1 1 0 0 0 -1.4-.91 6.039 6.039 0 0 0 -2.687 2.351 15.991 15.991 0 0 0 5.087 31.149zm-5.5-8a.5.5 0 0 1 0-1h1.5a1 1 0 0 0 0-2h-1.5a.5.5 0 0 1 0-1h1.5a1 1 0 0 0 0-2h-1.5a.5.5 0 0 1 0-1h1.5a1 1 0 0 0 0-2h-1.5a.5.5 0 0 1 0-1h13.5v10zm7.231 2a2 2 0 0 1 -3.462 0zm2.269-15h.465l.667 1h-1.132zm6 14.756v-13.756h3.4a13.844 13.844 0 0 1 -3.4 13.756zm2.635-15.756h-3.635a1 1 0 0 0 -1 1v1h-.465l-1.7-2.555a1 1 0 0 0 -.835-.445h-1v-.529a6.038 6.038 0 0 0 2-4.471 5.885 5.885 0 0 0 -.048-.652 14.029 14.029 0 0 1 6.683 6.652zm-15.342-5.293 2 2a1 1 0 0 0 1.414 0l2-2a1 1 0 0 0 .293-.707v-2.644a4 4 0 0 1 -.6 5.845 1 1 0 0 0 -.4.8v4h-4v-4.001a1 1 0 0 0 -.4-.8 4 4 0 0 1 -.6-5.845v2.645a1 1 0 0 0 .293.707zm-3.245-1.364a5.975 5.975 0 0 0 -.048.657 6.038 6.038 0 0 0 2 4.471v3.529h-1.5a2.5 2.5 0 0 0 -2.5 2.5 2.471 2.471 0 0 0 .513 1.5 2.449 2.449 0 0 0 0 3 2.449 2.449 0 0 0 0 3 2.471 2.471 0 0 0 -.513 1.5 2.5 2.5 0 0 0 2.5 2.5h1.642a3.981 3.981 0 0 0 7.716 0h4.142v1a.985.985 0 0 0 .088.4 13.873 13.873 0 0 1 -8.088 2.6 13.991 13.991 0 0 1 -5.952-26.657z"/><path d="m8 32h3.6a20.827 20.827 0 0 0 2.446 5.888l-2.552 2.544a1 1 0 0 0 0 1.415l5.66 5.66a1 1 0 0 0 .707.293 1 1 0 0 0 .707-.294l2.543-2.551a20.842 20.842 0 0 0 5.889 2.445v3.6a1 1 0 0 0 1 1h8a1 1 0 0 0 1-1v-3.6a20.842 20.842 0 0 0 5.889-2.446l2.543 2.551a1 1 0 0 0 .707.294 1 1 0 0 0 .707-.293l5.66-5.66a1 1 0 0 0 0-1.415l-2.552-2.544a20.827 20.827 0 0 0 2.446-5.887h3.6a1 1 0 0 0 1-1v-8a1 1 0 0 0 -1-1h-3.6a20.76 20.76 0 0 0 -2.446-5.889l2.552-2.543a1 1 0 0 0 0-1.415l-5.66-5.66a1 1 0 0 0 -.706-.293 1 1 0 0 0 -.707.294l-2.544 2.552a20.84 20.84 0 0 0 -5.889-2.446v-3.6a1 1 0 0 0 -1-1h-8a1 1 0 0 0 -1 1v3.6a20.84 20.84 0 0 0 -5.889 2.446l-2.543-2.552a1 1 0 0 0 -.707-.294 1 1 0 0 0 -.707.293l-5.66 5.66a1 1 0 0 0 0 1.415l2.552 2.543a20.76 20.76 0 0 0 -2.446 5.889h-3.6a1 1 0 0 0 -1 1v8a1 1 0 0 0 1 1zm1-8h3.4a1 1 0 0 0 .981-.8 18.81 18.81 0 0 1 2.773-6.677 1 1 0 0 0 -.128-1.261l-2.411-2.4 4.244-4.243 2.4 2.41a1 1 0 0 0 1.259.128 18.893 18.893 0 0 1 6.682-2.777 1 1 0 0 0 .8-.98v-3.4h6v3.4a1 1 0 0 0 .8.98 18.893 18.893 0 0 1 6.679 2.774 1 1 0 0 0 1.259-.128l2.4-2.41 4.244 4.243-2.411 2.4a1 1 0 0 0 -.128 1.261 18.81 18.81 0 0 1 2.776 6.68 1 1 0 0 0 .981.8h3.4v6h-3.4a1 1 0 0 0 -.98.8 18.869 18.869 0 0 1 -2.774 6.678 1 1 0 0 0 .128 1.26l2.411 2.4-4.244 4.243-2.4-2.41a1 1 0 0 0 -1.259-.128 18.839 18.839 0 0 1 -6.682 2.777 1 1 0 0 0 -.8.98v3.4h-6v-3.4a1 1 0 0 0 -.8-.98 18.839 18.839 0 0 1 -6.678-2.774 1 1 0 0 0 -1.259.128l-2.4 2.41-4.244-4.243 2.411-2.4a1 1 0 0 0 .128-1.26 18.869 18.869 0 0 1 -2.778-6.681 1 1 0 0 0 -.98-.8h-3.4z"/><path d="m61.316 54.051-6-2a1 1 0 0 0 -.632 0l-2.846.949h-25.838v-2a1 1 0 0 0 -1-1h-17a6 6 0 0 0 0 12h17a1 1 0 0 0 1-1v-2h25.838l2.846.949a1 1 0 0 0 .632 0l6-2a1 1 0 0 0 .684-.949v-2a1 1 0 0 0 -.684-.949zm-37.316 5.949h-16a4 4 0 0 1 0-8h16zm36-3.721-5 1.667-2.684-.895a1 1 0 0 0 -.316-.051h-26v-2h26a1 1 0 0 0 .316-.051l2.684-.895 5 1.667z"/><path d="m21 57h-14a1 1 0 0 1 0-2h14a1 1 0 0 1 0 2z"/></g></g></svg>