<svg id="Layer_3" enable-background="new 0 0 64 64" height="512" viewBox="0 0 64 64" width="512" xmlns="http://www.w3.org/2000/svg"><path d="m59 54-.044-.088c-1.944-3.888-2.956-8.175-2.956-12.522v-7.39h-6v7.39c0 4.347-1.012 8.634-2.956 12.522l-.044.088" fill="#8892a0"/><path d="m48 54h10c2.209 0 4 1.791 4 4v4h-18v-4c0-2.209 1.791-4 4-4z" fill="#f9d18b"/><path d="m48 30h10v4h-10z" fill="#f9d18b"/><path d="m27 10h7c1.105 0 2 .895 2 2v48c0 1.105-.895 2-2 2h-30c-1.105 0-2-.895-2-2v-48c0-1.105.895-2 2-2h7c0-4.418 3.582-8 8-8s8 3.582 8 8z" fill="#c66b60"/><path d="m19 2c-4.418 0-8 3.582-8 8h-7c-1.105 0-2 .895-2 2v42.834c15.527-4.107 27-18.594 27-35.834 0-3.105-.377-6.118-1.078-9h-.922c0-4.418-3.582-8-8-8z" fill="#e47c6e"/><g fill="#c7e2fc"><circle cx="19" cy="10" r="4"/><circle cx="19" cy="26" r="8"/><path d="m19 36c-6.075 0-11 4.925-11 11s4.925 11 11 11 11-4.925 11-11-4.925-11-11-11zm0 16c-2.761 0-5-2.239-5-5s2.239-5 5-5 5 2.239 5 5-2.239 5-5 5z"/></g><path d="m62 63h-18c-.552 0-1-.448-1-1v-4c0-2.757 2.243-5 5-5h10c2.757 0 5 2.243 5 5v4c0 .552-.448 1-1 1zm-17-2h16v-3c0-1.654-1.346-3-3-3h-10c-1.654 0-3 1.346-3 3z"/><path d="m47.938 54.359-.938-.359-.895-.447.044-.088c1.865-3.73 2.851-7.905 2.851-12.075v-7.39h2v7.39c0 4.478-1.059 8.963-3.062 12.969z"/><path d="m58.105 54.447-.044-.088c-2.002-4.006-3.061-8.491-3.061-12.969v-7.39h2v7.39c0 4.169.986 8.345 2.851 12.075z"/><path d="m58 35h-10c-.552 0-1-.448-1-1v-4c0-.552.448-1 1-1h10c.552 0 1 .448 1 1v4c0 .552-.448 1-1 1zm-9-2h8v-2h-8z"/><path d="m38 41h-2v-2h2c1.654 0 3-1.346 3-3v-7c0-2.757 2.243-5 5-5h6v-3c0-2.757 2.243-5 5-5h1c2.757 0 5 2.243 5 5s-2.243 5-5 5h-4v4h-2v-4h-6c-1.654 0-3 1.346-3 3v7c0 2.757-2.243 5-5 5zm16-17h4c1.654 0 3-1.346 3-3s-1.346-3-3-3h-1c-1.654 0-3 1.346-3 3z"/><path d="m19 59c-6.617 0-12-5.383-12-12s5.383-12 12-12 12 5.383 12 12-5.383 12-12 12zm0-22c-5.514 0-10 4.486-10 10s4.486 10 10 10 10-4.486 10-10-4.486-10-10-10z"/><path d="m18 38h2v2h-2z"/><path d="m18 54h2v2h-2z"/><path d="m26 46h2v2h-2z"/><path d="m10 46h2v2h-2z"/><path d="m24 41h2v2h-2z"/><path d="m12 51h2v2h-2z"/><path d="m12 41h2v2h-2z"/><path d="m24 51h2v2h-2z"/><path d="m19 53c-3.309 0-6-2.691-6-6s2.691-6 6-6 6 2.691 6 6-2.691 6-6 6zm0-10c-2.206 0-4 1.794-4 4s1.794 4 4 4 4-1.794 4-4-1.794-4-4-4z"/><path d="m34 63h-30c-1.654 0-3-1.346-3-3v-48c0-1.654 1.346-3 3-3h6.055c.499-4.494 4.32-8 8.945-8s8.446 3.506 8.945 8h6.055c1.654 0 3 1.346 3 3v48c0 1.654-1.346 3-3 3zm-30-52c-.551 0-1 .449-1 1v48c0 .551.449 1 1 1h30c.551 0 1-.449 1-1v-48c0-.551-.449-1-1-1h-7c-.552 0-1-.448-1-1 0-3.86-3.14-7-7-7s-7 3.14-7 7c0 .552-.448 1-1 1z"/><path d="m19 15c-2.757 0-5-2.243-5-5s2.243-5 5-5 5 2.243 5 5-2.243 5-5 5zm0-8c-1.654 0-3 1.346-3 3s1.346 3 3 3 3-1.346 3-3-1.346-3-3-3z"/><path d="m19 35c-4.962 0-9-4.038-9-9s4.038-9 9-9 9 4.038 9 9-4.038 9-9 9zm0-16c-3.86 0-7 3.14-7 7s3.14 7 7 7 7-3.14 7-7-3.14-7-7-7z"/><path d="m18 21h2v2h-2z"/><path d="m18 25h2v2h-2z"/><path d="m18 29h2v2h-2z"/><path d="m20 23h2v2h-2z"/><path d="m20 27h2v2h-2z"/><path d="m22 25h2v2h-2z"/><path d="m16 23h2v2h-2z"/><path d="m16 27h2v2h-2z"/><path d="m14 25h2v2h-2z"/></svg>